<?xml version="1.0" standalone="no"?>
<!DOCTYPE svg PUBLIC "-//W3C//DTD SVG 20010904//EN"
 "http://www.w3.org/TR/2001/REC-SVG-20010904/DTD/svg10.dtd">
<svg version="1.0" xmlns="http://www.w3.org/2000/svg"
 width="1536.000000pt" height="1024.000000pt" viewBox="0 0 1536.000000 1024.000000"
 preserveAspectRatio="xMidYMid meet">
<metadata>
Created by potrace 1.16, written by Peter Selinger 2001-2019
</metadata>
<g transform="translate(0.000000,1024.000000) scale(0.100000,-0.100000)"
fill="#000000" stroke="none">
<path d="M0 5120 l0 -5120 7680 0 7680 0 0 5120 0 5120 -7680 0 -7680 0 0
-5120z m7495 4220 c3 -5 1 -10 -4 -10 -6 0 -11 5 -11 10 0 6 2 10 4 10 3 0 8
-4 11 -10z m215 -175 c0 -19 -5 -25 -22 -25 -21 1 -21 2 -5 11 9 5 17 17 17
24 0 8 2 15 5 15 3 0 5 -11 5 -25z m2 -82 c2 -27 4 -157 4 -291 -1 -221 -3
-244 -18 -253 -17 -9 -18 -35 -18 -321 0 -171 3 -309 6 -305 4 3 13 -1 22 -9
12 -13 13 -17 3 -24 -9 -5 -10 -10 -3 -14 6 -3 10 -16 9 -27 -1 -14 -7 -19
-19 -16 -10 3 -18 1 -18 -5 0 -6 17 -8 39 -6 22 2 37 0 35 -4 -3 -5 -17 -8
-32 -9 -27 -1 -27 -1 5 -12 38 -14 52 -27 30 -27 -9 0 -19 5 -22 10 -4 7 -13
6 -26 -1 -12 -6 -18 -13 -15 -16 3 -3 12 0 20 6 10 8 16 9 21 1 8 -13 -4 -32
-16 -24 -6 3 -7 -4 -3 -20 4 -16 2 -26 -5 -26 -6 0 -8 -7 -4 -15 7 -20 16 -12
20 18 5 34 11 47 23 47 7 0 8 -6 0 -19 -11 -22 -13 -38 -3 -28 3 4 12 2 19 -4
8 -7 14 -7 19 1 3 5 1 10 -4 10 -7 0 -7 7 1 20 7 11 17 20 22 20 4 0 3 -7 -5
-16 -10 -12 -10 -17 0 -23 10 -6 9 -10 -3 -14 -9 -4 -16 -11 -16 -16 0 -6 7
-8 15 -5 8 4 15 2 15 -4 0 -5 -7 -15 -15 -22 -19 -16 -19 -25 1 -44 8 -9 12
-20 9 -26 -3 -5 -2 -10 3 -10 6 0 11 24 12 53 0 28 3 77 4 107 2 30 5 186 6
345 1 160 6 299 10 310 5 11 9 -234 9 -545 l1 -564 30 -31 29 -30 3 -260 3
-260 33 -41 34 -42 0 -161 c0 -89 4 -161 9 -161 5 0 9 11 9 25 0 14 5 25 11
25 6 0 8 -7 5 -16 -3 -8 -2 -12 4 -9 14 9 12 -8 -2 -24 -11 -11 -10 -12 1 -6
11 6 13 4 8 -7 -6 -18 1 -30 14 -22 5 3 5 13 0 23 -6 11 -6 22 1 32 8 12 9 11
5 -2 -3 -9 1 -26 9 -38 14 -19 14 -22 -1 -27 -10 -4 -14 -13 -10 -28 6 -20 5
-20 -9 -2 -14 18 -15 18 -13 -3 1 -24 16 -27 36 -8 11 10 14 9 18 -1 3 -6 9
-10 13 -7 5 3 12 0 16 -6 4 -8 3 -9 -4 -5 -24 14 -41 -79 -19 -100 4 -4 7 -17
7 -30 0 -22 22 -39 35 -26 13 13 73 8 68 -5 -6 -16 -16 -16 -31 -1 -10 10 -15
10 -22 -2 -5 -8 -9 -22 -9 -30 0 -11 2 -11 7 2 5 13 11 15 22 8 10 -7 11 -10
3 -10 -7 0 -13 -7 -13 -16 0 -8 -4 -12 -10 -9 -18 11 -10 -7 12 -26 11 -11 17
-19 13 -19 -5 0 -19 10 -32 22 l-23 21 0 -20 c0 -12 -6 -24 -12 -26 -8 -4 -7
-6 4 -6 9 -1 19 -7 22 -13 4 -7 4 -3 2 10 -2 12 0 20 5 16 5 -3 9 -16 9 -29 0
-18 4 -22 19 -18 13 3 18 11 14 21 -5 14 -3 15 7 5 11 -10 11 -15 0 -28 -16
-19 -37 -19 -57 0 -8 9 -18 14 -20 11 -8 -8 20 -32 45 -40 23 -8 28 -21 12
-31 -5 -3 -10 -1 -10 5 0 6 -5 8 -10 5 -14 -8 7 -35 23 -32 7 1 13 -10 15 -25
2 -16 -1 -28 -7 -28 -6 0 -11 -8 -11 -17 1 -17 1 -17 11 0 6 9 15 15 20 11 11
-7 1 46 -12 60 -4 5 -4 17 2 28 5 10 8 22 5 27 -3 4 1 8 8 8 14 0 16 -28 4
-38 -10 -7 14 -119 25 -119 5 0 4 -7 -3 -15 -11 -13 -10 -14 4 -9 9 3 17 16
17 28 1 22 7 275 10 459 1 59 5 107 10 107 5 0 9 5 9 11 0 5 -5 7 -12 3 -7 -5
-8 -3 -3 5 4 7 11 9 15 4 4 -4 10 -188 13 -408 4 -220 6 -402 7 -405 0 -3 5 2
10 10 5 8 7 23 4 33 -3 11 0 17 10 17 9 0 16 5 16 12 0 6 3 8 7 4 5 -4 0 -14
-10 -21 -20 -14 -6 -32 15 -19 7 5 9 2 5 -9 -4 -10 0 -18 12 -22 20 -6 19 26
21 -577 l0 -97 48 -3 c30 -2 47 -8 47 -16 0 -7 5 -16 11 -20 42 -27 160 -413
142 -463 -5 -12 -5 -25 -1 -28 5 -3 9 -17 11 -31 1 -14 6 -65 12 -115 5 -49 9
-110 9 -135 -1 -38 -3 -33 -14 35 -8 44 -21 136 -30 205 -20 149 -33 206 -86
366 l-40 121 -102 46 c-56 25 -145 66 -197 90 -52 24 -129 58 -170 76 -61 26
-81 41 -109 79 -19 26 -48 61 -64 79 l-29 31 13 63 c12 54 18 64 39 69 39 8
80 98 80 174 0 39 -5 65 -15 76 -13 14 -14 26 -6 61 24 100 0 194 -68 271 -36
41 -39 53 -10 38 11 -6 25 -9 32 -7 18 6 -84 55 -150 72 -31 8 -66 12 -78 9
-58 -16 -60 -15 -25 16 41 36 33 37 -43 6 -85 -34 -148 -92 -188 -173 -31 -63
-34 -75 -34 -163 0 -73 -3 -98 -15 -107 -11 -8 -15 -29 -14 -76 1 -75 35 -156
72 -172 24 -11 27 -20 36 -101 6 -45 4 -53 -20 -75 -14 -13 -43 -49 -64 -79
-27 -40 -48 -59 -76 -69 -51 -18 -379 -163 -453 -201 l-58 -29 -28 -88 c-45
-144 -75 -256 -76 -288 l-1 -30 -8 30 c-6 24 -8 26 -9 8 -1 -24 -21 -33 -21
-10 0 28 33 146 70 256 22 65 40 127 40 139 0 12 4 22 9 22 9 0 94 40 141 66
24 13 25 17 30 141 7 186 7 187 -48 225 -26 18 -58 43 -72 55 -14 13 -33 26
-42 29 -24 7 -26 81 -2 81 10 0 14 -7 11 -19 -4 -12 -1 -18 6 -15 7 2 11 15
10 28 -1 13 1 18 3 12 3 -7 13 -13 22 -13 15 -1 15 -2 0 -14 -22 -16 -23 -30
-3 -22 9 3 15 0 15 -9 0 -17 -26 -20 -35 -5 -4 6 -11 8 -16 5 -18 -12 -8 -21
24 -20 30 0 33 3 44 45 9 36 12 39 12 17 1 -16 5 -26 11 -22 6 4 8 11 5 16 -8
12 2 11 26 -1 15 -8 19 -7 19 5 0 14 -11 19 -37 16 -8 -1 -13 10 -13 29 0 16
5 30 11 30 5 0 7 5 3 12 -4 7 -3 8 5 4 6 -4 18 -3 25 3 11 9 14 0 15 -50 1
-68 -4 -85 -24 -69 -20 16 -28 -16 -8 -35 8 -9 18 -13 21 -10 3 3 -3 12 -14
21 -18 15 -18 15 3 9 12 -3 24 -2 26 2 3 5 7 161 9 347 2 196 7 340 12 344 6
3 12 0 14 -6 2 -7 12 -12 23 -12 15 0 19 -7 19 -34 0 -29 -3 -33 -20 -29 -19
5 -20 0 -19 -180 l1 -185 28 2 c16 0 28 2 27 3 -1 1 -5 1 -9 0 -10 -3 -37 35
-38 51 0 6 7 12 16 12 11 0 14 -5 10 -16 -6 -15 -4 -15 10 -3 37 30 39 99 3
99 -11 0 -19 4 -19 10 0 5 8 6 17 3 12 -5 15 -2 10 10 -10 26 7 20 24 -9 16
-26 16 -26 22 -4 4 17 2 20 -10 16 -10 -4 -13 -2 -10 8 3 7 2 17 -3 22 -12 12
-14 75 -5 99 5 11 15 25 22 30 14 11 14 40 -2 65 -5 9 1 7 14 -5 13 -11 20
-27 18 -37 -6 -20 -5 -20 17 -12 14 5 14 8 1 21 -15 15 -11 38 5 28 9 -6 23
25 15 33 -3 3 -5 1 -5 -4 0 -12 -47 -17 -54 -5 -3 5 4 8 17 7 29 -1 29 19 0
74 -13 25 -17 36 -9 26 14 -18 21 -15 17 7 -1 5 4 5 10 2 7 -5 8 -10 0 -18 -7
-7 -7 -16 0 -29 13 -23 33 -6 36 30 1 18 -1 21 -8 11 -6 -9 -9 -10 -9 -2 0 6
5 15 10 18 8 5 7 11 -1 21 -6 8 -9 17 -5 21 3 3 6 0 6 -7 0 -7 3 -11 6 -7 12
11 11 162 0 169 -8 6 -8 8 0 8 8 0 12 90 13 307 1 180 6 312 11 317 12 12 11
31 10 -242 -1 -182 1 -213 15 -218 8 -3 15 -11 15 -16 0 -6 -6 -6 -14 1 -12
10 -14 -4 -15 -95 -1 -93 1 -105 14 -100 9 3 13 2 10 -4 -3 -6 -2 -10 3 -10
14 0 36 29 28 37 -3 3 -6 1 -6 -5 0 -6 -7 -9 -15 -6 -8 4 -15 10 -15 16 0 5 5
6 10 3 6 -3 10 -1 10 5 0 7 9 9 23 6 12 -3 16 -3 10 0 -7 3 -13 14 -13 25 0
10 -5 19 -11 19 -6 0 -8 -7 -5 -17 4 -10 3 -14 -1 -9 -9 8 -12 56 -4 56 2 0
13 -8 23 -17 15 -14 19 -14 16 -3 -2 9 3 14 12 12 10 -3 7 5 -8 21 -23 24 -23
26 -5 37 17 11 17 11 -2 5 -23 -7 -25 -8 -43 -6 -7 0 -10 6 -7 12 4 6 13 8 21
5 8 -3 14 -1 14 5 0 6 4 7 10 4 6 -3 7 1 4 9 -3 9 -14 16 -23 16 -11 1 -8 5 9
15 15 9 19 14 10 15 -13 0 -13 2 -1 9 24 15 22 39 -3 34 -21 -5 -21 -5 -1 10
11 9 26 17 33 17 6 0 12 5 12 11 0 5 4 8 8 5 5 -3 9 1 9 9 0 13 -4 12 -19 -2
-17 -15 -18 -15 -18 1 0 10 -9 20 -20 23 l-20 5 20 33 c24 38 25 49 5 42 -8
-4 -17 -2 -20 3 -4 6 5 10 19 10 18 0 24 5 22 18 -2 9 2 23 10 30 16 15 18 8
4 -18 -7 -13 -6 -19 5 -24 17 -6 29 9 19 25 -4 7 -7 25 -6 41 1 24 -3 28 -18
23 -17 -5 -17 -3 -7 19 7 13 15 20 18 14 4 -7 9 -6 14 1 4 7 -4 21 -19 32 -14
11 -26 25 -26 32 0 6 6 3 13 -7 12 -17 14 -17 20 -3 4 10 13 14 22 11 18 -7
11 20 -14 50 -12 14 -12 17 -2 11 11 -6 13 -4 8 8 -3 10 -2 17 3 17 6 0 10 -4
10 -10 0 -5 8 -10 18 -10 14 0 15 2 2 10 -13 9 -13 11 0 21 12 8 10 9 -7 4
-14 -4 -23 -2 -23 4 0 6 5 11 11 11 6 0 9 6 6 14 -3 8 -1 16 5 18 7 3 9 15 4
31 -3 15 -11 25 -16 22 -6 -3 -10 -1 -10 4 0 6 6 11 14 11 9 0 12 9 9 28 -3
23 -2 24 6 7 5 -11 7 -31 4 -45 -4 -20 -3 -22 7 -10 9 12 10 11 5 -7 -5 -16
-2 -23 8 -23 22 0 28 27 11 41 -14 11 -14 15 -2 23 8 6 17 19 21 29 5 14 2 16
-18 13 -14 -3 -25 0 -25 6 0 5 6 8 13 5 28 -11 42 17 45 88 4 112 10 176 16
182 5 6 18 8 61 12 6 1 3 6 -5 11 -10 6 -11 10 -2 10 6 0 12 8 12 18 0 14 -2
15 -10 2 -8 -13 -10 -13 -10 2 0 9 -6 19 -12 22 -7 3 -2 3 10 0 23 -6 23 -5 7
19 -12 19 -13 27 -4 33 8 4 9 3 5 -4 -4 -7 -3 -12 3 -12 5 0 12 6 14 13 3 7 6
5 6 -5 1 -10 -4 -18 -10 -18 -5 0 -7 -4 -4 -10 19 -31 25 4 25 153 0 236 12
627 19 627 4 0 7 -10 7 -22 3 -378 4 -397 19 -392 8 4 15 1 15 -5 0 -22 16
-10 18 13 1 16 -5 26 -16 30 -9 2 -6 4 8 3 18 -2 25 -8 25 -24 0 -12 3 -24 6
-28 4 -3 6 12 6 34 -1 23 -4 36 -8 30 -4 -7 -11 -6 -20 4 -8 7 -21 16 -29 19
-9 3 1 9 23 13 l37 7 0 57 c0 38 -3 51 -9 41 -6 -8 -7 -18 -5 -22 3 -4 1 -8
-4 -8 -5 0 -8 27 -8 59 1 33 5 57 9 54 5 -3 7 -13 4 -23 -2 -10 -1 -24 4 -31
5 -8 9 70 9 186 0 179 2 204 19 236 17 32 20 67 27 280 4 154 11 249 18 258 8
11 8 13 -1 7 -8 -4 -13 -1 -13 8 0 9 8 16 19 16 15 0 20 -9 23 -47z m-195
-150 c-2 -21 -4 -6 -4 32 0 39 2 55 4 38 2 -18 2 -50 0 -70z m0 -320 c-1 -54
-3 -12 -3 92 0 105 2 149 3 98 2 -51 2 -136 0 -190z m-437 177 c0 -5 -4 -10
-10 -10 -5 0 -10 5 -10 10 0 6 5 10 10 10 6 0 10 -4 10 -10z m-90 -340 c0 -5
-4 -10 -10 -10 -5 0 -10 5 -10 10 0 6 5 10 10 10 6 0 10 -4 10 -10z m345 -20
c3 -5 1 -10 -4 -10 -6 0 -11 5 -11 10 0 6 2 10 4 10 3 0 8 -4 11 -10z m-5 -50
c-10 -6 -11 -10 -2 -10 6 0 12 -7 12 -16 0 -8 -4 -12 -10 -9 -14 9 -12 -9 2
-23 10 -10 10 -15 -2 -22 -9 -6 -11 -13 -5 -17 6 -5 10 -61 11 -130 0 -114 -5
-145 -19 -108 -7 18 -8 326 -1 337 3 4 11 8 17 8 7 0 6 -4 -3 -10z m905 -50
c3 -5 1 -10 -4 -10 -6 0 -11 5 -11 10 0 6 2 10 4 10 3 0 8 -4 11 -10z m-1071
-71 c-3 -5 -10 -7 -15 -3 -5 3 -7 10 -3 15 3 5 10 7 15 3 5 -3 7 -10 3 -15z
m857 -35 c22 -25 22 -26 3 -16 -12 6 -24 18 -28 27 -8 21 -3 19 25 -11z m-434
1 c0 -8 -4 -12 -9 -9 -5 3 -6 10 -3 15 9 13 12 11 12 -6z m503 -61 c0 -8 -19
-13 -24 -6 -3 5 1 9 9 9 8 0 15 -2 15 -3z m-380 -28 c0 -3 -4 -8 -10 -11 -5
-3 -10 -1 -10 4 0 6 5 11 10 11 6 0 10 -2 10 -4z m-107 -86 c3 -11 1 -23 -4
-26 -5 -3 -9 -1 -9 5 0 5 -3 16 -6 25 -3 9 -2 16 4 16 5 0 12 -9 15 -20z m98
-33 c-10 -9 -11 -8 -5 6 3 10 9 15 12 12 3 -3 0 -11 -7 -18z m-616 -37 c3 -5
1 -10 -4 -10 -6 0 -11 5 -11 10 0 6 2 10 4 10 3 0 8 -4 11 -10z m635 -9 c0 -4
-7 -8 -15 -8 -8 0 -15 6 -15 13 0 8 6 11 15 8 8 -4 15 -9 15 -13z m-631 -440
l1 -429 -67 -58 c-37 -33 -73 -64 -80 -71 -10 -8 -13 -63 -13 -207 0 -170 -2
-195 -15 -190 -13 5 -15 37 -15 198 l0 192 61 55 c34 30 72 65 85 79 l24 25 1
385 c1 212 1 400 1 418 0 17 4 32 8 32 5 0 9 -193 9 -429z m688 422 c-4 -3 -2
-12 4 -20 9 -9 8 -13 0 -13 -6 0 -11 2 -11 4 0 2 -3 11 -6 20 -4 10 -1 16 7
16 7 0 9 -3 6 -7z m-55 -10 c-6 -2 -10 -9 -7 -14 4 -5 -1 -6 -10 -2 -13 5 -14
7 -3 14 7 5 18 8 23 8 6 0 4 -3 -3 -6z m25 -85 c-3 -8 -6 -5 -6 6 -1 11 2 17
5 13 3 -3 4 -12 1 -19z m261 -41 c2 -12 -3 -17 -17 -17 -15 0 -21 6 -21 21 0
25 33 22 38 -4z m-652 -12 c10 -26 -5 -65 -25 -65 -20 0 -31 18 -31 50 0 29
46 41 56 15z m868 -1 c20 -8 9 -34 -15 -34 -18 0 -26 20 -12 33 8 8 8 8 27 1z
m-1331 -111 c8 -14 -12 -53 -27 -53 -23 0 -27 15 -10 38 16 23 29 28 37 15z
m1132 -53 c0 -7 -6 -15 -12 -17 -8 -3 -13 4 -13 17 0 13 5 20 13 18 6 -3 12
-11 12 -18z m-528 -32 c-3 -8 -6 -5 -6 6 -1 11 2 17 5 13 3 -3 4 -12 1 -19z
m313 12 c0 -5 -4 -10 -10 -10 -5 0 -10 5 -10 10 0 6 5 10 10 10 6 0 10 -4 10
-10z m-570 -110 c0 -11 -4 -20 -10 -20 -5 0 -10 9 -10 20 0 11 5 20 10 20 6 0
10 -9 10 -20z m-665 -140 c-5 -8 -11 -8 -17 -2 -6 6 -7 16 -3 22 5 8 11 8 17
2 6 -6 7 -16 3 -22z m1684 -343 c2 -262 -1 -328 -11 -325 -9 3 -12 44 -11 169
1 90 2 245 3 344 1 99 5 171 9 160 4 -11 9 -167 10 -348z m-869 339 c0 -3 -4
-8 -10 -11 -5 -3 -10 -1 -10 4 0 6 5 11 10 11 6 0 10 -2 10 -4z m5 -64 c-6 -7
-34 11 -29 19 3 5 11 3 19 -4 7 -6 12 -13 10 -15z m-32 -24 c-4 -22 -4 -23 11
-4 14 17 16 18 16 3 0 -9 -3 -17 -7 -18 -5 0 -16 -2 -26 -4 -9 -2 -16 0 -14 3
2 4 7 15 10 25 9 25 16 21 10 -5z m-38 -21 c20 -31 14 -73 -10 -70 -12 1 -14
-2 -6 -10 13 -13 15 -47 2 -47 -5 0 -16 -3 -25 -6 -9 -3 -16 -1 -16 6 0 6 4 9
8 6 4 -2 14 -1 21 3 10 7 10 14 -3 40 -9 17 -21 31 -26 31 -16 0 -12 37 6 54
21 22 31 20 49 -7z m705 -8 c0 -5 -4 -7 -10 -4 -5 3 -10 1 -10 -6 0 -7 -3 -10
-6 -6 -8 7 4 27 17 27 5 0 9 -5 9 -11z m-665 -19 c-3 -5 -1 -10 4 -10 6 0 11
-5 11 -11 0 -8 -5 -8 -15 1 -13 11 -12 30 1 30 3 0 2 -4 -1 -10z m-1035 -33
c-10 -9 -11 -9 -6 1 4 7 2 12 -6 12 -9 0 -9 3 2 10 19 12 27 -7 10 -23z m1045
-47 c-3 -5 -10 -10 -16 -10 -5 0 -9 5 -9 10 0 6 7 10 16 10 8 0 12 -4 9 -10z
m-45 -74 c0 -3 -4 -8 -10 -11 -5 -3 -10 -1 -10 4 0 6 5 11 10 11 6 0 10 -2 10
-4z m1310 -67 c0 -20 -24 -26 -35 -9 -4 6 -4 17 -1 25 7 20 36 7 36 -16z
m-1347 -1 c-4 -7 -8 -16 -8 -20 0 -20 -11 -13 -11 7 0 14 6 25 14 25 8 0 10
-5 5 -12z m822 -48 c0 -16 -6 -26 -18 -28 -19 -4 -32 20 -23 44 9 25 41 13 41
-16z m-805 -25 c0 -1 -6 -8 -14 -15 -12 -9 -15 -8 -13 8 0 12 6 18 14 15 7 -3
13 -6 13 -8z m1680 -75 c0 -5 -8 -10 -17 -10 -15 0 -16 2 -3 10 19 12 20 12
20 0z m-2783 -36 c-3 -3 -12 -4 -19 -1 -8 3 -5 6 6 6 11 1 17 -2 13 -5z m1070
-41 c-9 -2 -14 -9 -11 -15 5 -7 2 -8 -6 -3 -7 4 -15 2 -20 -5 -5 -8 -9 -7 -13
5 -4 9 -3 14 1 11 4 -2 14 -1 22 5 8 5 22 8 30 8 11 -1 10 -3 -3 -6z m658 -12
c3 -5 1 -12 -5 -16 -5 -3 -10 1 -10 9 0 18 6 21 15 7z m32 -37 c-3 -3 -12 -4
-19 -1 -8 3 -5 6 6 6 11 1 17 -2 13 -5z m-19 -17 c14 6 15 5 2 -9 -17 -19 -30
-14 -29 10 0 10 3 12 5 5 3 -7 13 -9 22 -6z m32 -46 c0 -6 -4 -12 -8 -15 -5
-3 -9 1 -9 9 0 8 4 15 9 15 4 0 8 -4 8 -9z m1040 -15 c0 -3 -4 -8 -10 -11 -5
-3 -10 -1 -10 4 0 6 5 11 10 11 6 0 10 -2 10 -4z m-1810 -16 c0 -5 -2 -10 -4
-10 -3 0 -8 5 -11 10 -3 6 -1 10 4 10 6 0 11 -4 11 -10z m1230 -50 c-6 -11
-15 -18 -21 -15 -5 4 -5 13 1 26 6 10 7 19 3 19 -4 0 -1 5 7 10 20 12 25 -11
10 -40z m-1211 -2 c1 7 6 10 12 6 7 -4 7 -10 1 -16 -13 -13 -32 -1 -31 20 0
14 2 13 9 -3 5 -11 9 -14 9 -7z m-21 -43 c-3 -3 -9 2 -12 12 -6 14 -5 15 5 6
7 -7 10 -15 7 -18z m1242 5 c8 -16 8 -24 -3 -35 -12 -12 -16 -10 -28 11 -11
22 -11 27 1 34 19 12 18 13 30 -10z m598 -59 c3 -8 -1 -12 -9 -9 -7 2 -15 10
-17 17 -3 8 1 12 9 9 7 -2 15 -10 17 -17z m-1035 -26 c-7 -21 -13 -19 -13 6 0
11 4 18 10 14 5 -3 7 -12 3 -20z m147 -14 c0 -23 -9 -31 -26 -24 -8 3 -14 15
-14 28 0 18 4 22 20 18 11 -3 20 -13 20 -22z m-1160 -15 c0 -2 3 -11 6 -20 4
-12 0 -16 -15 -16 -14 0 -21 6 -21 20 0 11 7 20 15 20 8 0 15 -2 15 -4z m228
-42 c30 -21 17 -38 -14 -18 -23 16 -32 34 -16 34 4 0 18 -7 30 -16z m782 -14
c0 -5 -5 -10 -11 -10 -5 0 -7 5 -4 10 3 6 8 10 11 10 2 0 4 -4 4 -10z m0 -30
c0 -5 -2 -10 -4 -10 -3 0 -8 5 -11 10 -3 6 -1 10 4 10 6 0 11 -4 11 -10z m275
-40 c-3 -5 -14 -10 -23 -9 -14 0 -13 2 3 9 27 11 27 11 20 0z m-1267 -17 c5
-17 -26 -29 -40 -15 -6 6 -7 15 -3 22 9 14 37 9 43 -7z m2032 -53 c0 -5 -4
-10 -10 -10 -5 0 -10 5 -10 10 0 6 5 10 10 10 6 0 10 -4 10 -10z m-965 -20
c-3 -5 -14 -10 -23 -10 -15 0 -15 2 -2 10 20 13 33 13 25 0z m-1185 -19 c0
-19 -23 -35 -34 -24 -14 15 -5 43 14 43 13 0 20 -7 20 -19z m230 -27 c0 -8
-19 -13 -24 -6 -3 5 1 9 9 9 8 0 15 -2 15 -3z m1016 -48 c8 -8 14 -21 14 -30
0 -8 8 -20 18 -25 9 -6 12 -11 7 -11 -6 0 -16 5 -23 12 -9 9 -13 6 -20 -11
l-8 -23 -12 26 c-6 14 -17 24 -24 22 -7 -1 -10 -1 -5 1 4 3 7 13 7 23 0 15 9
24 28 29 2 1 10 -5 18 -13z m-1069 -12 c-3 -3 -12 -4 -19 -1 -8 3 -5 6 6 6 11
1 17 -2 13 -5z m2710 -10 c-3 -3 -12 -4 -19 -1 -8 3 -5 6 6 6 11 1 17 -2 13
-5z m-747 -14 c0 -5 -4 -10 -10 -10 -5 0 -10 5 -10 10 0 6 5 10 10 10 6 0 10
-4 10 -10z m-2200 -40 c0 -5 -2 -10 -4 -10 -3 0 -8 5 -11 10 -3 6 -1 10 4 10
6 0 11 -4 11 -10z m2190 -40 c0 -5 -5 -10 -11 -10 -5 0 -7 5 -4 10 3 6 8 10
11 10 2 0 4 -4 4 -10z m0 -146 c0 -8 -4 -12 -10 -9 -5 3 -10 10 -10 16 0 5 5
9 10 9 6 0 10 -7 10 -16z m-572 -77 c4 -22 -27 -35 -38 -16 -10 15 7 42 24 36
6 -2 12 -11 14 -20z m-231 -69 c-3 -7 -5 -2 -5 12 0 14 2 19 5 13 2 -7 2 -19
0 -25z m-1207 -32 c0 -2 3 -13 6 -23 5 -16 4 -16 -10 1 -18 22 -21 14 -6 -14
14 -27 -1 -31 -25 -7 -11 11 -14 17 -6 12 10 -6 12 -2 6 14 -5 17 -2 21 14 21
12 0 21 -2 21 -4z m1300 -39 c0 -5 -4 -5 -10 -2 -5 3 -10 14 -10 23 0 15 2 15
10 2 5 -8 10 -19 10 -23z m720 13 c0 -5 -4 -10 -10 -10 -5 0 -10 5 -10 10 0 6
5 10 10 10 6 0 10 -4 10 -10z m-2202 -54 c3 -13 0 -16 -9 -11 -7 5 -17 1 -25
-9 -9 -13 -14 -14 -20 -5 -4 7 -2 15 4 17 7 2 12 10 12 19 0 21 34 12 38 -11z
m1491 0 c10 -12 8 -13 -8 -9 -12 3 -21 9 -21 14 0 14 16 11 29 -5z m-1499 -36
c0 -5 -4 -10 -10 -10 -5 0 -10 5 -10 10 0 6 5 10 10 10 6 0 10 -4 10 -10z
m1545 -20 c3 -5 -1 -10 -9 -10 -9 0 -16 5 -16 10 0 6 4 10 9 10 6 0 13 -4 16
-10z m38 -4 c4 -10 1 -13 -9 -9 -15 6 -19 23 -5 23 5 0 11 -7 14 -14z m67 -20
c0 -7 -18 -29 -40 -50 -31 -29 -40 -33 -40 -19 0 33 12 63 25 63 7 0 15 7 19
15 6 17 36 9 36 -9z m-1586 -48 c-5 -8 -2 -9 9 -5 19 7 23 -8 5 -19 -6 -4 -14
-2 -16 5 -4 11 -6 11 -13 0 -4 -7 -11 -10 -15 -6 -4 4 1 14 12 22 23 18 27 18
18 3z m-39 -37 c3 -5 1 -12 -4 -15 -5 -3 -11 1 -15 9 -6 16 9 21 19 6z m2183
-9 c3 -9 -2 -13 -14 -10 -9 1 -19 9 -22 16 -3 9 2 13 14 10 9 -1 19 -9 22 -16z
m-2568 -12 c0 -5 -4 -10 -10 -10 -5 0 -10 5 -10 10 0 6 5 10 10 10 6 0 10 -4
10 -10z m60 0 c0 -5 -7 -10 -16 -10 -8 0 -12 5 -9 10 3 6 10 10 16 10 5 0 9
-4 9 -10z m240 -30 c0 -5 -7 -7 -15 -4 -8 4 -15 8 -15 10 0 2 7 4 15 4 8 0 15
-4 15 -10z m77 -6 c-3 -3 -12 -4 -19 -1 -8 3 -5 6 6 6 11 1 17 -2 13 -5z
m2177 -69 c3 -9 0 -15 -9 -15 -8 0 -15 7 -15 15 0 8 4 15 9 15 5 0 11 -7 15
-15z m396 -10 c0 -8 -4 -15 -10 -15 -5 0 -7 7 -4 15 4 8 8 15 10 15 2 0 4 -7
4 -15z m-2905 -46 c-4 -5 -16 -9 -28 -8 -21 0 -21 1 -2 9 18 8 18 9 2 9 -10 1
-15 6 -12 11 4 7 13 7 26 0 11 -6 17 -15 14 -21z m-128 -5 c-3 -3 -12 -4 -19
-1 -8 3 -5 6 6 6 11 1 17 -2 13 -5z m113 -79 c0 -8 -4 -15 -10 -15 -5 0 -10 7
-10 15 0 8 5 15 10 15 6 0 10 -7 10 -15z m-103 -1 c-3 -3 -12 -4 -19 -1 -8 3
-5 6 6 6 11 1 17 -2 13 -5z m2158 -104 c0 -7 -6 -15 -12 -17 -8 -3 -13 4 -13
17 0 13 5 20 13 18 6 -3 12 -11 12 -18z m162 -13 c-6 -20 -27 -19 -27 2 0 14
5 19 15 14 9 -3 14 -10 12 -16z m-1957 -17 c0 -5 -4 -10 -10 -10 -5 0 -10 5
-10 10 0 6 5 10 10 10 6 0 10 -4 10 -10z m-357 -85 c-2 -6 -7 -10 -13 -9 -5 1
-17 2 -25 3 -28 2 -15 20 13 18 15 -1 26 -7 25 -12z m127 6 c0 -18 -18 -21
-30 -6 -10 13 -9 15 9 15 11 0 21 -4 21 -9z m235 -1 c3 -5 2 -10 -3 -10 -6 0
-9 -39 -8 -90 0 -50 -2 -90 -6 -90 -5 0 -8 45 -8 100 0 91 8 118 25 90z m2275
-21 c0 -5 -7 -9 -15 -9 -15 0 -20 12 -9 23 8 8 24 -1 24 -14z m955 -19 c3 -5
1 -10 -4 -10 -6 0 -11 5 -11 10 0 6 2 10 4 10 3 0 8 -4 11 -10z m-3141 -79 c3
-5 0 -11 -8 -14 -15 -6 -26 1 -26 15 0 11 27 10 34 -1z m2186 -31 c0 -5 -7
-10 -15 -10 -8 0 -15 5 -15 10 0 6 7 10 15 10 8 0 15 -4 15 -10z m-2660 -90
c0 -5 -7 -10 -15 -10 -8 0 -15 5 -15 10 0 6 7 10 15 10 8 0 15 -4 15 -10z
m2350 -60 c0 -11 -6 -20 -14 -20 -18 0 -29 16 -21 30 11 18 35 11 35 -10z
m-2683 -52 c-3 -7 -5 -2 -5 12 0 14 2 19 5 13 2 -7 2 -19 0 -25z m2991 20 c-6
-18 -28 -21 -28 -4 0 9 7 16 16 16 9 0 14 -5 12 -12z m-2578 -83 c0 -8 -4 -15
-10 -15 -5 0 -10 7 -10 15 0 8 5 15 10 15 6 0 10 -7 10 -15z m-500 -85 c-10
-6 -11 -10 -2 -10 6 0 12 -5 12 -10 0 -7 -6 -7 -20 0 -27 14 -25 30 3 30 18 0
19 -2 7 -10z m-480 -40 c0 -5 -4 -10 -10 -10 -5 0 -10 5 -10 10 0 6 5 10 10
10 6 0 10 -4 10 -10z m4250 -26 c0 -2 -7 -4 -15 -4 -8 0 -15 4 -15 10 0 5 7 7
15 4 8 -4 15 -8 15 -10z m170 2 c0 -3 -4 -8 -10 -11 -5 -3 -10 -1 -10 4 0 6 5
11 10 11 6 0 10 -2 10 -4z m-870 -81 c0 -8 -7 -15 -15 -15 -8 0 -15 7 -15 15
0 8 7 15 15 15 8 0 15 -7 15 -15z m-2373 -37 c-3 -7 -5 -2 -5 12 0 14 2 19 5
13 2 -7 2 -19 0 -25z m3073 -4 c0 -14 -3 -14 -15 -4 -8 7 -15 14 -15 16 0 2 7
4 15 4 8 0 15 -7 15 -16z m-3083 -61 c-3 -10 -5 -4 -5 12 0 17 2 24 5 18 2 -7
2 -21 0 -30z m-1037 -3 c0 -5 -4 -10 -10 -10 -5 0 -10 5 -10 10 0 6 5 10 10
10 6 0 10 -4 10 -10z m1027 -67 c-3 -10 -5 -4 -5 12 0 17 2 24 5 18 2 -7 2
-21 0 -30z m3255 12 c0 -5 -5 -11 -11 -13 -6 -2 -11 4 -11 13 0 9 5 15 11 13
6 -2 11 -8 11 -13z m-854 -47 c-6 -18 -28 -21 -28 -4 0 9 7 16 16 16 9 0 14
-5 12 -12z m-2411 -35 c-3 -10 -5 -4 -5 12 0 17 2 24 5 18 2 -7 2 -21 0 -30z
m-1147 -3 c0 -5 -7 -10 -16 -10 -8 0 -12 5 -9 10 3 6 10 10 16 10 5 0 9 -4 9
-10z m77 -12 c-3 -8 -6 -5 -6 6 -1 11 2 17 5 13 3 -3 4 -12 1 -19z m48 12 c3
-5 1 -10 -4 -10 -6 0 -11 5 -11 10 0 6 2 10 4 10 3 0 8 -4 11 -10z m1012 -52
c-3 -7 -5 -2 -5 12 0 14 2 19 5 13 2 -7 2 -19 0 -25z m-10 -70 c-3 -7 -5 -2
-5 12 0 14 2 19 5 13 2 -7 2 -19 0 -25z m2081 -163 c0 -11 -6 9 -14 45 -7 36
-13 76 -12 90 0 14 6 -6 14 -45 7 -38 13 -79 12 -90z m-2091 113 c-3 -8 -6 -5
-6 6 -1 11 2 17 5 13 3 -3 4 -12 1 -19z m-10 -70 c-3 -8 -6 -5 -6 6 -1 11 2
17 5 13 3 -3 4 -12 1 -19z m2523 6 c0 -2 -7 -4 -15 -4 -8 0 -15 4 -15 10 0 5
7 7 15 4 8 -4 15 -8 15 -10z m-2953 0 c-3 -3 -12 -4 -19 -1 -8 3 -5 6 6 6 11
1 17 -2 13 -5z m846 -299 c0 -113 -5 -169 -27 -290 -34 -189 -36 -196 -29
-110 7 91 11 129 14 135 1 3 3 10 4 15 1 6 5 18 10 28 5 11 1 30 -10 51 -10
18 -15 39 -12 47 3 8 6 5 6 -9 1 -14 6 -22 14 -20 17 6 21 49 5 59 -19 12 -21
60 -2 52 12 -4 14 1 9 23 -4 23 -3 25 4 9 8 -17 10 -15 10 13 1 20 -3 31 -9
27 -5 -3 -10 -2 -10 4 0 5 6 12 13 14 6 3 0 6 -15 6 -16 1 -28 5 -28 10 0 5
10 7 21 4 20 -6 21 -3 15 23 -4 16 -12 31 -17 35 -5 3 -7 14 -4 25 5 15 4 16
-3 4 -17 -26 -33 -133 -22 -144 14 -14 13 -27 -2 -23 -9 1 -12 -8 -11 -28 2
-22 0 -26 -7 -15 -7 11 -9 3 -8 -28 1 -24 5 -45 10 -48 4 -3 8 -11 8 -17 0 -7
-4 -6 -10 3 -7 11 -10 1 -12 -37 -2 -61 -4 -86 -16 -168 -8 -52 -10 -55 -11
-20 0 22 4 67 9 100 5 32 10 93 10 135 1 85 9 142 19 136 3 -2 6 15 7 37 0 23
11 92 24 152 l24 110 14 -80 c7 -44 14 -143 15 -220z m2777 254 c0 -5 -4 -9
-10 -9 -5 0 -10 7 -10 16 0 8 5 12 10 9 6 -3 10 -10 10 -16z m-74 -16 c-10
-10 -19 5 -10 18 6 11 8 11 12 0 2 -7 1 -15 -2 -18z m189 18 c3 -5 1 -12 -5
-16 -5 -3 -10 1 -10 9 0 18 6 21 15 7z m-1600 -61 c-4 -17 -9 -29 -12 -26 -3
2 -2 19 2 36 4 17 9 29 12 26 3 -2 2 -19 -2 -36z m402 -7 c-3 -10 -5 -4 -5 12
0 17 2 24 5 18 2 -7 2 -21 0 -30z m-2133 -22 c-4 -23 -12 -41 -19 -41 -22 0
-24 26 -4 43 10 9 19 24 19 34 0 9 2 14 5 11 3 -3 3 -24 -1 -47z m-104 -26 c0
-8 -4 -15 -9 -15 -13 0 -22 16 -14 24 11 11 23 6 23 -9z m2258 -55 c0 -22 -1
-22 -8 5 -4 17 -8 39 -8 50 0 16 2 15 8 -5 4 -14 8 -36 8 -50z m305 64 c9 -10
-4 -34 -19 -34 -8 0 -14 9 -14 20 0 19 19 27 33 14z m-706 -46 c-3 -7 -5 -2
-5 12 0 14 2 19 5 13 2 -7 2 -19 0 -25z m-2857 -18 c0 -5 -2 -10 -4 -10 -3 0
-8 5 -11 10 -3 6 -1 10 4 10 6 0 11 -4 11 -10z m2807 -32 c-3 -8 -6 -5 -6 6
-1 11 2 17 5 13 3 -3 4 -12 1 -19z m60 -10 c-3 -7 -5 -2 -5 12 0 14 2 19 5 13
2 -7 2 -19 0 -25z m-1367 -8 c0 -5 -4 -10 -10 -10 -5 0 -10 5 -10 10 0 6 5 10
10 10 6 0 10 -4 10 -10z m1779 -40 c1 -13 0 -13 -9 0 -5 8 -9 24 -9 35 l0 20
9 -20 c5 -11 9 -27 9 -35z m-402 8 c-3 -8 -6 -5 -6 6 -1 11 2 17 5 13 3 -3 4
-12 1 -19z m1385 -33 c0 -5 -5 -11 -11 -13 -6 -2 -11 4 -11 13 0 9 5 15 11 13
6 -2 11 -8 11 -13z m-1444 -165 c0 -32 -1 -31 -9 10 -4 25 -7 65 -7 90 l1 45
7 -55 c5 -30 8 -71 8 -90z m80 69 l-3 -54 -5 62 c-3 34 -1 58 3 54 5 -4 7 -32
5 -62z m822 -49 c0 -5 -6 -10 -14 -10 -8 0 -18 5 -21 10 -3 6 3 10 14 10 12 0
21 -4 21 -10z m-893 -82 c-3 -8 -6 -5 -6 6 -1 11 2 17 5 13 3 -3 4 -12 1 -19z
m80 -30 c-3 -8 -6 -5 -6 6 -1 11 2 17 5 13 3 -3 4 -12 1 -19z m-70 -35 c-3
-10 -5 -2 -5 17 0 19 2 27 5 18 2 -10 2 -26 0 -35z m-2827 -3 c0 -5 -4 -10
-10 -10 -5 0 -10 5 -10 10 0 6 5 10 10 10 6 0 10 -4 10 -10z m120 0 c0 -5 -7
-10 -15 -10 -8 0 -15 5 -15 10 0 6 7 10 15 10 8 0 15 -4 15 -10z m3580 -4 c0
-2 -7 -6 -15 -10 -8 -3 -15 -1 -15 4 0 6 7 10 15 10 8 0 15 -2 15 -4z m-863
-48 c-3 -7 -5 -2 -5 12 0 14 2 19 5 13 2 -7 2 -19 0 -25z m-2097 7 c0 -8 -7
-15 -15 -15 -26 0 -18 20 13 29 1 1 2 -6 2 -14z m2167 -22 c-3 -10 -5 -4 -5
12 0 17 2 24 5 18 2 -7 2 -21 0 -30z m-60 -60 c-3 -10 -5 -4 -5 12 0 17 2 24
5 18 2 -7 2 -21 0 -30z m-1434 -65 c-1 -51 -4 -142 -6 -201 -4 -126 8 -153 17
-39 4 42 11 100 16 127 5 28 12 74 15 103 4 29 9 51 11 49 3 -3 -9 -116 -27
-253 -25 -201 -31 -281 -29 -417 1 -117 -3 -173 -11 -183 -9 -11 -8 -18 2 -31
10 -11 10 -14 2 -9 -7 4 -13 3 -13 -2 0 -5 -10 -9 -21 -8 -33 2 -59 45 -64
106 -4 48 -3 51 5 20 5 -19 11 -45 12 -57 3 -26 43 -40 64 -22 22 18 20 249
-3 292 -14 28 -14 30 0 19 14 -12 15 -2 11 95 -5 128 6 503 15 503 3 0 5 -42
4 -92z m2857 62 c0 -5 -4 -10 -10 -10 -5 0 -10 5 -10 10 0 6 5 10 10 10 6 0
10 -4 10 -10z m150 -10 c0 -5 -4 -10 -10 -10 -5 0 -10 5 -10 10 0 6 5 10 10
10 6 0 10 -4 10 -10z m-3680 -50 c-18 -11 -24 -6 -16 16 5 14 9 15 19 5 9 -9
9 -14 -3 -21z m2117 -27 c-3 -10 -5 -2 -5 17 0 19 2 27 5 18 2 -10 2 -26 0
-35z m60 10 c-3 -10 -5 -4 -5 12 0 17 2 24 5 18 2 -7 2 -21 0 -30z m10 -85
c-3 -8 -6 -5 -6 6 -1 11 2 17 5 13 3 -3 4 -12 1 -19z m-2187 2 c0 -5 -4 -10
-10 -10 -5 0 -10 5 -10 10 0 6 5 10 10 10 6 0 10 -4 10 -10z m2127 -12 c-3 -8
-6 -5 -6 6 -1 11 2 17 5 13 3 -3 4 -12 1 -19z m-2770 -10 c-3 -8 -6 -5 -6 6
-1 11 2 17 5 13 3 -3 4 -12 1 -19z m-377 -8 c0 -5 -4 -10 -10 -10 -5 0 -10 5
-10 10 0 6 5 10 10 10 6 0 10 -4 10 -10z m3207 -12 c-3 -8 -6 -5 -6 6 -1 11 2
17 5 13 3 -3 4 -12 1 -19z m1343 -8 c0 -5 -2 -10 -4 -10 -3 0 -8 5 -11 10 -3
6 -1 10 4 10 6 0 11 -4 11 -10z m-1393 -37 c-3 -10 -5 -4 -5 12 0 17 2 24 5
18 2 -7 2 -21 0 -30z m50 -5 c-3 -7 -5 -2 -5 12 0 14 2 19 5 13 2 -7 2 -19 0
-25z m-2822 -17 c3 -5 1 -12 -5 -16 -5 -3 -10 1 -10 9 0 18 6 21 15 7z m635
-6 c0 -8 -4 -15 -10 -15 -5 0 -10 7 -10 15 0 8 5 15 10 15 6 0 10 -7 10 -15z
m2147 -87 c-2 -18 -4 -6 -4 27 0 33 2 48 4 33 2 -15 2 -42 0 -60z m10 -125
c-2 -16 -4 -5 -4 22 0 28 2 40 4 28 2 -13 2 -35 0 -50z m20 -20 c-2 -16 -4 -5
-4 22 0 28 2 40 4 28 2 -13 2 -35 0 -50z m330 15 c-2 -13 -4 -5 -4 17 -1 22 1
32 4 23 2 -10 2 -28 0 -40z m0 -60 c-3 -7 -5 -2 -5 12 0 14 2 19 5 13 2 -7 2
-19 0 -25z m-327 -46 c0 -21 -2 -24 -10 -12 -13 20 -13 53 0 45 6 -3 10 -18
10 -33z m-30 -56 c0 -2 -13 -6 -29 -8 -17 -2 -28 -1 -25 4 5 8 54 12 54 4z
m-1421 -33 c-1 -23 -2 -24 -6 -6 -2 13 -13 24 -26 26 -18 4 -17 5 6 6 23 1 27
-3 26 -26z m1438 -5 c-3 -7 -5 -2 -5 12 0 14 2 19 5 13 2 -7 2 -19 0 -25z
m-70 -60 c-2 -13 -4 -5 -4 17 -1 22 1 32 4 23 2 -10 2 -28 0 -40z m-1355 -50
c2 -21 0 -38 -4 -38 -4 0 -8 21 -7 48 1 52 6 48 11 -10z m1421 37 c-3 -9 -8
-14 -10 -11 -3 3 -2 9 2 15 9 16 15 13 8 -4z m103 -43 c-12 -12 -18 8 -10 35
l8 28 4 -28 c2 -16 1 -31 -2 -35z m-2046 -4 c0 -4 0 -11 0 -15 0 -5 -4 -8 -9
-8 -5 0 -13 -3 -17 -7 -21 -22 -33 3 -12 26 14 14 38 17 38 4z m2203 -3 c-3
-9 -8 -14 -10 -11 -3 3 -2 9 2 15 9 16 15 13 8 -4z m-336 -42 c-3 -10 -5 -2
-5 17 0 19 2 27 5 18 2 -10 2 -26 0 -35z m-1340 -60 c-2 -16 -4 -5 -4 22 0 28
2 40 4 28 2 -13 2 -35 0 -50z m1493 42 c-7 -8 -16 -15 -21 -15 -5 0 -1 8 9 18
20 22 31 19 12 -3z m-839 -103 c-8 -23 -9 -17 -9 33 0 55 1 57 9 27 7 -22 7
-43 0 -60z m-916 33 c6 -6 23 -20 39 -33 51 -39 127 -22 112 25 -4 14 -1 19
13 19 25 0 21 -24 -8 -54 -21 -21 -31 -23 -69 -19 -24 3 -48 10 -52 17 -4 7
-13 9 -20 5 -8 -5 -11 -4 -7 2 4 6 -9 25 -28 42 -38 33 -49 56 -12 25 12 -10
27 -23 32 -29z m1698 25 c-3 -12 -8 -19 -11 -16 -5 6 5 36 12 36 2 0 2 -9 -1
-20z m447 -26 c-8 -8 -23 -20 -34 -25 -13 -7 -9 -1 9 15 34 29 43 33 25 10z
m-300 -4 c-8 -5 -19 -10 -25 -10 -5 0 -3 5 5 10 8 5 20 10 25 10 6 0 3 -5 -5
-10z m-1600 -14 c0 -2 -8 -10 -17 -17 -16 -13 -17 -12 -4 4 13 16 21 21 21 13z
m50 -208 c7 -64 9 -121 6 -127 -4 -6 -3 -11 2 -11 15 0 25 -132 10 -141 -6 -4
-16 -5 -22 -2 -5 4 -1 10 10 14 15 6 13 8 -11 8 l-29 1 22 16 c27 19 33 94 7
94 -8 0 -15 5 -15 10 0 6 5 10 10 10 6 0 10 7 10 16 0 8 -4 12 -10 9 -5 -3
-10 -2 -10 4 0 5 4 12 8 15 5 3 7 19 4 35 -5 39 -42 50 -162 50 -104 0 -139 4
-134 13 3 4 68 6 144 4 77 -1 142 -1 144 1 2 2 1 15 -3 28 l-6 24 -304 5
c-167 3 -306 8 -309 11 -3 3 17 5 44 6 108 2 423 8 492 8 l72 1 1 58 1 57 8
-50 c4 -27 13 -103 20 -167z m1287 180 c-3 -8 -6 -5 -6 6 -1 11 2 17 5 13 3
-3 4 -12 1 -19z m356 2 c-8 -8 -53 -7 -53 2 0 4 13 6 29 5 16 -1 27 -4 24 -7z
m-1006 -32 c-3 -8 -6 -5 -6 6 -1 11 2 17 5 13 3 -3 4 -12 1 -19z m-945 -22 c5
-8 8 -7 8 1 0 7 7 10 15 7 29 -12 14 -20 -32 -18 -27 1 -60 3 -75 3 -17 1 -28
7 -28 16 0 11 10 13 53 8 28 -3 55 -11 59 -17z m915 -28 c-3 -7 -5 -2 -5 12 0
14 2 19 5 13 2 -7 2 -19 0 -25z m670 0 c-3 -8 -6 -5 -6 6 -1 11 2 17 5 13 3
-3 4 -12 1 -19z m769 -15 c-10 -10 -19 5 -10 18 6 11 8 11 12 0 2 -7 1 -15 -2
-18z m-1399 -55 c-2 -13 -4 -3 -4 22 0 25 2 35 4 23 2 -13 2 -33 0 -45z m885
50 c-17 -8 -26 -8 -34 0 -9 9 -4 12 23 11 32 0 33 -1 11 -11z m105 6 c-3 -3
-12 -4 -19 -1 -8 3 -5 6 6 6 11 1 17 -2 13 -5z m-1040 -61 c-3 -10 -5 -4 -5
12 0 17 2 24 5 18 2 -7 2 -21 0 -30z m1111 -17 c3 -3 -37 -6 -89 -6 -52 0 -88
4 -81 8 14 9 160 7 170 -2z m210 -1 c3 -3 -42 -4 -99 -3 -77 1 -91 3 -54 7 55
7 145 4 153 -4z m-1261 -67 c-3 -7 -5 -2 -5 12 0 14 2 19 5 13 2 -7 2 -19 0
-25z m-1047 4 c0 -20 -21 -42 -59 -62 -19 -10 -25 -9 -33 1 -6 10 -7 7 -3 -8
4 -13 2 -23 -4 -23 -5 0 -46 -23 -91 -51 -70 -43 -140 -70 -140 -54 0 13 81
54 100 50 15 -3 20 0 17 9 -8 19 4 28 19 15 8 -7 14 -7 19 1 3 5 1 10 -5 10
-6 0 -8 5 -4 11 5 8 9 8 14 -1 4 -7 13 -9 20 -5 9 6 9 9 1 15 -8 4 10 22 46
46 32 21 62 45 66 52 12 18 37 14 37 -6z m-540 -6 c0 -8 -51 -13 -56 -5 -3 5
9 9 25 9 17 0 31 -2 31 -4z m197 -3 c-8 -7 -77 -6 -85 2 -3 3 16 5 43 5 27 0
45 -3 42 -7z m56 0 c-7 -2 -21 -2 -30 0 -10 3 -4 5 12 5 17 0 24 -2 18 -5z
m545 2 c-10 -10 -49 -14 -43 -4 4 5 16 9 27 9 12 0 19 -2 16 -5z m1389 -57
c-2 -13 -4 -5 -4 17 -1 22 1 32 4 23 2 -10 2 -28 0 -40z m428 -111 c115 -113
160 -163 146 -162 -21 1 -331 298 -331 316 0 22 29 -2 185 -154z m45 152 c0
-12 -19 -21 -30 -14 -6 4 -8 10 -6 14 7 10 36 10 36 0z m100 -19 c0 -18 -16
-18 -38 0 -30 25 -28 31 8 19 17 -6 30 -15 30 -19z m80 20 c0 -5 -4 -10 -10
-10 -5 0 -10 5 -10 10 0 6 5 10 10 10 6 0 10 -4 10 -10z m-1253 -32 c-3 -7 -5
-2 -5 12 0 14 2 19 5 13 2 -7 2 -19 0 -25z m-907 -3 c0 -7 -30 -36 -67 -64
-38 -28 -98 -77 -134 -108 -192 -168 -189 -166 -195 -148 -6 14 -10 14 -33 -6
-14 -12 -3 0 24 27 28 27 74 69 104 94 109 90 216 182 226 194 27 33 75 40 75
11z m193 -3 c-14 -35 -440 -475 -448 -461 -4 5 -1 8 6 7 6 -2 14 3 17 11 3 8
0 11 -7 7 -6 -4 -11 -3 -11 1 0 16 86 94 94 86 4 -5 6 -1 4 7 -1 8 3 14 10 12
6 -1 11 2 10 7 -3 10 195 225 266 290 21 20 44 41 50 47 15 16 18 11 9 -14z
m1493 -61 c218 -238 252 -277 245 -284 -5 -5 -31 15 -57 45 -27 29 -83 89
-125 133 -42 44 -92 97 -112 118 -19 20 -40 37 -46 37 -6 0 -11 7 -11 16 0 29
43 3 106 -65z m444 29 c0 -5 -2 -10 -4 -10 -3 0 -8 5 -11 10 -3 6 -1 10 4 10
6 0 11 -4 11 -10z m483 3 c-7 -2 -21 -2 -30 0 -10 3 -4 5 12 5 17 0 24 -2 18
-5z m-1696 -35 c-3 -7 -5 -2 -5 12 0 14 2 19 5 13 2 -7 2 -19 0 -25z m-1383
14 c3 -5 -1 -9 -9 -9 -8 0 -12 4 -9 9 3 4 7 8 9 8 2 0 6 -4 9 -8z m-514 -12
c0 -5 -2 -10 -4 -10 -3 0 -8 5 -11 10 -3 6 -1 10 4 10 6 0 11 -4 11 -10z m107
4 c-3 -3 -12 -4 -19 -1 -8 3 -5 6 6 6 11 1 17 -2 13 -5z m2368 -71 c-10 -66
-17 -46 -8 23 4 32 9 51 11 40 2 -10 1 -38 -3 -63z m-668 -25 c-2 -18 -4 -4
-4 32 0 36 2 50 4 33 2 -18 2 -48 0 -65z m1253 74 c0 -4 -16 -6 -35 -4 -19 2
-35 6 -35 8 0 2 16 4 35 4 19 0 35 -4 35 -8z m240 -2 c12 -8 11 -10 -7 -10
-13 0 -23 5 -23 10 0 13 11 13 30 0z m-2085 -20 c3 -5 1 -10 -4 -10 -6 0 -11
5 -11 10 0 6 2 10 4 10 3 0 8 -4 11 -10z m713 -340 c0 -36 -2 -57 -5 -47 -3
10 -9 14 -16 10 -7 -4 -6 1 2 10 7 9 11 18 7 18 -3 1 -14 2 -23 4 -10 1 -29 7
-43 13 -24 10 -24 11 -2 11 12 1 22 -3 22 -9 0 -6 10 -5 25 2 18 8 24 17 21
34 -3 12 -7 80 -10 151 l-5 128 14 -130 c7 -71 13 -159 13 -195z m658 193 c37
-54 67 -104 67 -111 0 -6 3 -10 5 -7 9 9 32 -17 32 -37 0 -10 5 -16 10 -13 9
6 14 -8 11 -27 0 -5 3 -8 7 -8 5 0 9 -7 9 -16 0 -14 -2 -14 -14 2 -7 11 -20
27 -28 37 -9 10 -13 22 -10 27 3 5 0 12 -6 16 -8 4 -9 3 -5 -4 4 -7 5 -12 3
-12 -5 0 -87 111 -139 187 -20 29 -39 49 -43 45 -5 -4 -5 -1 -1 6 16 27 37 8
102 -85z m-1345 59 c-17 -2 -31 -7 -31 -12 0 -5 -8 -6 -17 -3 -13 5 -15 2 -10
-11 4 -10 -2 -33 -12 -54 -32 -61 -182 -267 -193 -264 -5 1 -7 -2 -3 -8 7 -11
-14 -55 -22 -46 -4 3 -12 1 -20 -5 -17 -14 -17 -5 0 13 7 7 18 26 25 41 7 17
17 25 24 21 7 -4 8 -3 4 4 -4 6 24 58 62 114 38 57 77 118 86 136 9 17 21 32
26 32 6 0 10 7 10 15 0 9 7 18 15 21 8 4 15 12 15 19 0 9 8 10 36 1 l36 -11
-31 -3z m26 -49 c-3 -10 -5 -4 -5 12 0 17 2 24 5 18 2 -7 2 -21 0 -30z m537
-33 c-1 -27 2 -47 7 -44 5 3 9 0 9 -5 0 -6 -4 -11 -10 -11 -5 0 -10 -5 -10
-11 0 -5 4 -8 10 -4 5 3 3 -7 -5 -22 -17 -33 -21 -68 -5 -43 6 9 10 10 10 3 0
-6 -5 -15 -10 -18 -6 -4 -7 -12 -4 -18 5 -9 4 -9 -5 -1 -9 8 -10 40 -5 117 7
108 20 150 18 57z m-526 -71 c-3 -33 -4 -33 -8 8 -3 23 -2 39 3 34 5 -5 7 -24
5 -42z m597 22 c0 -28 -1 -28 -17 -14 -10 9 -18 21 -18 27 0 6 5 4 10 -4 8
-13 10 -12 10 3 0 9 3 17 8 17 4 0 7 -13 7 -29z m1225 19 c12 -8 11 -10 -7
-10 -12 0 -25 5 -28 10 -8 13 15 13 35 0z m-2520 -34 c0 -2 -8 -10 -17 -17
-16 -13 -17 -12 -4 4 13 16 21 21 21 13z m1290 -61 c0 -1 -9 -5 -20 -8 -11 -3
-20 -1 -20 4 0 5 5 9 10 9 6 0 10 5 10 11 0 6 -7 9 -15 5 -12 -4 -13 -2 -3 14
11 17 12 17 25 -7 7 -14 13 -26 13 -28z m1076 18 c-7 -7 -26 7 -26 19 0 6 6 6
15 -2 9 -7 13 -15 11 -17z m-2456 13 c0 -2 -8 -10 -17 -17 -16 -13 -17 -12 -4
4 13 16 21 21 21 13z m-280 -26 c0 -5 -4 -10 -10 -10 -5 0 -10 5 -10 10 0 6 5
10 10 10 6 0 10 -4 10 -10z m1645 -59 c3 -5 2 -12 -3 -15 -5 -3 -9 1 -9 9 0
17 3 19 12 6z m27 -29 c-7 -2 -9 -9 -6 -14 4 -7 2 -8 -4 -4 -6 4 -9 13 -6 21
4 8 11 12 17 8 8 -5 7 -8 -1 -11z m35 -64 c-3 -7 -5 -2 -5 12 0 14 2 19 5 13
2 -7 2 -19 0 -25z m-130 -15 c-3 -10 -5 -4 -5 12 0 17 2 24 5 18 2 -7 2 -21 0
-30z m153 -82 c-1 -13 -29 45 -29 59 0 8 6 0 14 -19 8 -18 15 -36 15 -40z
m563 55 c4 -10 1 -13 -8 -9 -8 3 -12 9 -9 14 7 12 11 11 17 -5z m-1379 -22 c8
-22 -3 -33 -14 -14 -7 12 -12 11 -30 -5 -11 -10 -18 -25 -15 -32 2 -8 0 -11
-5 -8 -6 3 -10 1 -10 -6 0 -7 -3 -10 -6 -7 -3 3 4 24 16 47 21 43 53 55 64 25z
m56 -1 c0 -7 6 -13 13 -14 9 0 9 -2 0 -6 -7 -2 -20 3 -29 11 -8 9 -20 14 -25
11 -5 -4 -9 -1 -9 4 0 6 11 10 25 9 14 -1 25 -8 25 -15z m68 3 c32 3 34 3 14
-6 -13 -6 -28 -8 -33 -4 -5 3 -9 0 -9 -6 0 -7 -6 -5 -15 4 -8 8 -15 18 -15 22
0 5 5 3 11 -3 6 -6 27 -9 47 -7z m1516 -44 c12 -23 12 -29 1 -29 -7 0 -11 6
-8 14 4 9 0 11 -13 7 -16 -5 -16 -4 -4 5 13 10 13 12 0 21 -10 6 -11 10 -3 10
7 0 19 -13 27 -28z m-1660 -16 c-3 -9 -10 -16 -15 -16 -5 0 -4 9 3 20 14 22
21 20 12 -4z m1420 -2 c3 -8 2 -12 -4 -9 -6 3 -10 10 -10 16 0 14 7 11 14 -7z
m-1484 -34 c0 -5 -5 -10 -11 -10 -5 0 -7 5 -4 10 3 6 8 10 11 10 2 0 4 -4 4
-10z m1523 -30 c3 -11 1 -18 -4 -14 -5 3 -9 12 -9 20 0 20 7 17 13 -6z m-1503
-20 c-6 -11 -13 -20 -16 -20 -2 0 0 9 6 20 6 11 13 20 16 20 2 0 0 -9 -6 -20z"/>
<path d="M7541 7770 c1 -122 8 -157 25 -129 4 7 3 9 -3 6 -11 -7 -11 211 0
229 7 12 -1 24 -15 24 -5 0 -8 -58 -7 -130z"/>
<path d="M7682 7880 c0 -14 2 -19 5 -12 2 6 2 18 0 25 -3 6 -5 1 -5 -13z"/>
<path d="M7606 7853 c-6 -14 -5 -15 5 -6 7 7 10 15 7 18 -3 3 -9 -2 -12 -12z"/>
<path d="M7690 7850 c-13 -8 -12 -10 3 -10 9 0 17 5 17 10 0 12 -1 12 -20 0z"/>
<path d="M7580 7814 c15 -17 30 -18 30 -1 0 7 -9 13 -21 14 -17 2 -18 -1 -9
-13z"/>
<path d="M7681 7784 c0 -11 3 -14 6 -6 3 7 2 16 -1 19 -3 4 -6 -2 -5 -13z"/>
<path d="M7655 7679 c-4 -6 -5 -12 -2 -15 2 -3 7 2 10 11 7 17 1 20 -8 4z"/>
<path d="M7754 7635 c-1 -25 3 -45 8 -45 5 0 8 8 6 18 -1 9 1 23 6 31 7 10 5
12 -4 6 -9 -5 -10 -2 -5 14 3 11 3 21 -2 21 -5 0 -9 -20 -9 -45z"/>
<path d="M7615 7641 c-3 -5 -2 -12 3 -15 5 -3 9 1 9 9 0 17 -3 19 -12 6z"/>
<path d="M7703 7635 c-3 -9 -3 -18 -1 -21 3 -3 8 4 11 16 6 23 -1 27 -10 5z"/>
<path d="M7540 7580 c0 -11 2 -20 4 -20 2 0 6 9 9 20 3 11 1 20 -4 20 -5 0 -9
-9 -9 -20z"/>
<path d="M7752 7560 c0 -14 2 -19 5 -12 2 6 2 18 0 25 -3 6 -5 1 -5 -13z"/>
<path d="M7542 7525 c0 -16 2 -22 5 -12 2 9 2 23 0 30 -3 6 -5 -1 -5 -18z"/>
<path d="M7503 7475 c0 -33 2 -45 4 -27 2 18 2 45 0 60 -2 15 -4 0 -4 -33z"/>
<path d="M7750 7490 c0 -22 2 -40 4 -40 2 0 6 18 8 40 2 22 0 40 -4 40 -5 0
-8 -18 -8 -40z"/>
<path d="M7805 7500 c1 -16 -1 -30 -6 -30 -5 0 -9 -5 -9 -11 0 -5 4 -8 9 -4 5
3 12 -5 14 -17 2 -13 5 3 6 35 0 31 -3 57 -8 57 -5 0 -7 -13 -6 -30z"/>
<path d="M7473 7448 c2 -7 0 -23 -4 -35 -5 -14 -5 -23 1 -23 6 0 10 6 10 13 0
6 3 22 6 35 4 14 2 22 -6 22 -6 0 -10 -6 -7 -12z"/>
<path d="M7542 7419 c-1 -16 -1 -29 2 -29 7 0 13 50 7 55 -4 2 -8 -10 -9 -26z"/>
<path d="M7752 7415 c0 -16 2 -22 5 -12 2 9 2 23 0 30 -3 6 -5 -1 -5 -18z"/>
<path d="M7812 7385 c0 -16 2 -22 5 -12 2 9 2 23 0 30 -3 6 -5 -1 -5 -18z"/>
<path d="M7751 7364 c0 -11 3 -14 6 -6 3 7 2 16 -1 19 -3 4 -6 -2 -5 -13z"/>
<path d="M7751 7324 c0 -11 3 -14 6 -6 3 7 2 16 -1 19 -3 4 -6 -2 -5 -13z"/>
<path d="M7852 7190 c9 -14 16 -45 17 -69 2 -65 11 -64 11 1 0 44 -4 59 -22
74 l-21 19 15 -25z"/>
<path d="M7350 7038 c0 -9 7 -19 16 -22 15 -6 15 -4 3 11 -7 10 -15 20 -16 22
-2 2 -3 -3 -3 -11z"/>
<path d="M7380 7045 c0 -5 5 -17 10 -25 5 -8 10 -10 10 -5 0 6 -5 17 -10 25
-5 8 -10 11 -10 5z"/>
<path d="M7868 7038 c-2 -7 -1 -33 3 -58 l6 -45 1 58 c2 55 -2 71 -10 45z"/>
<path d="M7340 6861 c-12 -24 -13 -34 -1 -27 9 6 22 46 15 46 -2 0 -8 -9 -14
-19z"/>
<path d="M7316 6793 c-4 -9 -1 -21 5 -27 9 -8 10 -8 5 2 -4 7 -2 19 4 27 7 9
8 15 2 15 -5 0 -13 -8 -16 -17z"/>
<path d="M7272 6701 c2 -7 7 -12 11 -12 12 1 9 15 -3 20 -7 2 -11 -2 -8 -8z"/>
<path d="M7246 6642 c-3 -6 1 -13 10 -16 23 -9 28 -2 10 13 -8 7 -17 8 -20 3z"/>
<path d="M7909 6608 c7 -9 10 -22 6 -28 -4 -6 -1 -9 7 -8 8 2 15 -12 19 -37
l6 -40 2 41 c1 33 -4 45 -26 65 -15 13 -22 16 -14 7z"/>
<path d="M7287 6563 c-3 -5 -1 -17 4 -28 6 -17 7 -16 6 8 -1 28 -3 32 -10 20z"/>
<path d="M7291 6474 c0 -11 3 -14 6 -6 3 7 2 16 -1 19 -3 4 -6 -2 -5 -13z"/>
<path d="M7291 6324 c0 -11 3 -14 6 -6 3 7 2 16 -1 19 -3 4 -6 -2 -5 -13z"/>
<path d="M7237 6261 c-4 -17 -3 -21 5 -13 5 5 8 16 6 23 -3 8 -7 3 -11 -10z"/>
<path d="M7980 6266 c0 -2 7 -7 16 -10 8 -3 12 -2 9 4 -6 10 -25 14 -25 6z"/>
<path d="M7170 6201 c0 -49 0 -49 23 -3 8 18 11 29 5 26 -6 -4 -14 0 -19 7 -6
9 -9 -1 -9 -30z"/>
<path d="M7210 6200 c-9 -6 -10 -10 -3 -10 6 0 15 5 18 10 8 12 4 12 -15 0z"/>
<path d="M7191 6161 c-21 -18 -21 -19 -1 -24 11 -3 17 -1 14 4 -3 6 0 16 6 24
17 21 7 19 -19 -4z"/>
<path d="M8030 6140 c0 -5 5 -10 11 -10 5 0 7 5 4 10 -3 6 -8 10 -11 10 -2 0
-4 -4 -4 -10z"/>
<path d="M8093 5983 c-20 -7 -15 -19 7 -19 11 0 20 4 20 8 0 10 -13 16 -27 11z"/>
<path d="M7060 5863 c0 -15 2 -16 9 -4 8 12 11 9 16 -12 4 -15 12 -27 17 -27
5 0 7 6 4 13 -3 6 -9 20 -12 30 -4 9 -13 17 -20 17 -8 0 -14 -8 -14 -17z"/>
<path d="M7040 5840 c0 -5 5 -10 11 -10 5 0 7 5 4 10 -3 6 -8 10 -11 10 -2 0
-4 -4 -4 -10z"/>
<path d="M7063 5825 c-7 -8 -8 -24 -3 -46 5 -22 8 -26 9 -12 1 12 5 23 9 25 5
2 6 13 3 24 -5 17 -8 19 -18 9z"/>
<path d="M7051 5664 c0 -11 3 -14 6 -6 3 7 2 16 -1 19 -3 4 -6 -2 -5 -13z"/>
<path d="M8194 5652 c3 -6 0 -13 -6 -15 -10 -4 -10 -6 0 -6 7 -1 10 -5 7 -11
-3 -5 -2 -10 4 -10 16 0 22 18 9 24 -7 3 -3 3 10 0 14 -3 22 -1 22 7 0 7 -3 9
-6 6 -4 -3 -16 -2 -27 4 -12 7 -17 7 -13 1z"/>
<path d="M8220 5610 c0 -5 5 -10 10 -10 6 0 10 5 10 10 0 6 -4 10 -10 10 -5 0
-10 -4 -10 -10z"/>
<path d="M8217 5583 c-4 -3 -7 -11 -7 -17 0 -6 5 -4 10 4 8 13 10 12 11 -5 1
-11 1 -27 0 -35 -1 -12 0 -12 7 -2 5 7 7 24 4 38 -4 24 -13 30 -25 17z"/>
<path d="M6960 5487 c0 -33 3 -47 9 -38 5 7 6 22 4 32 -3 10 -1 19 5 19 19 0
21 28 1 33 -17 5 -19 0 -19 -46z"/>
<path d="M8310 5464 c0 -8 5 -12 10 -9 6 4 8 11 5 16 -9 14 -15 11 -15 -7z"/>
<path d="M8284 5444 c3 -9 6 -22 6 -30 0 -12 3 -12 14 -2 8 7 10 15 5 16 -5 2
-9 10 -9 18 0 8 -5 14 -11 14 -6 0 -8 -7 -5 -16z"/>
<path d="M6874 5392 c0 -10 8 -19 18 -19 22 -2 23 4 4 23 -19 18 -22 18 -22
-4z"/>
<path d="M8293 5345 c0 -22 2 -30 4 -17 2 12 2 30 0 40 -3 9 -5 -1 -4 -23z"/>
<path d="M6845 5280 c3 -5 8 -10 11 -10 2 0 4 5 4 10 0 6 -5 10 -11 10 -5 0
-7 -4 -4 -10z"/>
<path d="M6923 5255 c0 -22 2 -30 4 -17 2 12 2 30 0 40 -3 9 -5 -1 -4 -23z"/>
<path d="M6960 3725 c0 -8 5 -15 10 -15 6 0 10 7 10 15 0 8 -4 15 -10 15 -5 0
-10 -7 -10 -15z"/>
<path d="M6965 1910 c-3 -5 -1 -10 4 -10 6 0 11 5 11 10 0 6 -2 10 -4 10 -3 0
-8 -4 -11 -10z"/>
<path d="M6326 1685 c-11 -8 -18 -17 -15 -19 2 -3 15 4 29 14 14 11 21 20 15
19 -5 0 -19 -6 -29 -14z"/>
<path d="M6409 1543 c-13 -17 -13 -17 6 -3 11 8 22 16 24 17 2 2 0 3 -6 3 -6
0 -17 -8 -24 -17z"/>
<path d="M6357 1505 c-13 -9 -15 -15 -7 -20 14 -8 34 9 29 23 -3 7 -11 6 -22
-3z"/>
<path d="M6525 1389 c-11 -16 -1 -19 13 -3 7 8 8 14 3 14 -5 0 -13 -5 -16 -11z"/>
</g>
</svg>
